<svg width="24" height="22" viewBox="0 0 24 22" fill="none" xmlns="http://www.w3.org/2000/svg">
<path d="M6.05994 0C4.50924 0 2.9565 0.639663 1.77353 1.91285C-0.592444 4.45918 -0.589908 8.54948 1.77353 11.0981L11.795 21.9141C11.8204 21.9412 11.8509 21.9629 11.8846 21.9776C11.9182 21.9924 11.9544 22 11.991 22C12.0276 22 12.0638 21.9924 12.0975 21.9776C12.1311 21.9629 12.1616 21.9412 12.187 21.9141C15.5315 18.3145 18.881 14.7153 22.2255 11.1157C24.5915 8.56931 24.5915 4.46804 22.2255 1.92167C19.8596 -0.624702 16.0187 -0.624758 13.6527 1.92167L12.0081 3.70229L10.3463 1.91285C9.16333 0.639666 7.61061 0 6.05994 0ZM6.05994 0.555344C7.4647 0.555344 8.87267 1.13659 9.95433 2.30071L11.8121 4.30171C11.8375 4.3289 11.8679 4.35051 11.9016 4.36528C11.9353 4.38004 11.9715 4.38766 12.0081 4.38766C12.0446 4.38766 12.0808 4.38004 12.1145 4.36528C12.1482 4.35051 12.1786 4.3289 12.2041 4.30171L14.0447 2.31834C16.208 -0.00995183 19.6703 -0.00990099 21.8335 2.31834C23.9968 4.64659 23.9968 8.39958 21.8335 10.7278C18.5544 14.257 15.2701 17.7855 11.991 21.3146L2.16552 10.7102C0.00410077 8.37947 0.00224641 4.62891 2.16552 2.30071C3.24716 1.13659 4.65516 0.555344 6.05994 0.555344Z" fill="#131313"/>
</svg>
