<svg width="56" height="56" viewBox="0 0 56 56" fill="none" xmlns="http://www.w3.org/2000/svg">
<rect width="56" height="56" rx="28" fill="#B3B3B3"/>
<path d="M16 25C14.3432 25 13 26.3431 13 28C13 29.6569 14.3432 31 16 31C17.6569 31 19 29.6569 19 28C19 26.3431 17.6569 25 16 25ZM28 25C26.3432 25 25 26.3431 25 28C25 29.6569 26.3432 31 28 31C29.6569 31 31 29.6569 31 28C31 26.3431 29.6569 25 28 25ZM40 25C38.3432 25 37 26.3431 37 28C37 29.6569 38.3432 31 40 31C41.6569 31 43 29.6569 43 28C43 26.3431 41.6569 25 40 25Z" fill="white"/>
</svg>
