<svg width="23" height="24" viewBox="0 0 23 24" fill="none" xmlns="http://www.w3.org/2000/svg">
<path d="M22.8944 8.69511L11.6658 0.056012C11.5686 -0.0186707 11.4325 -0.0186707 11.3353 0.056012L0.105571 8.69511C0.0390613 8.7456 0 8.82449 0 8.90864L0.00105572 23.7307C0.00105572 23.8801 0.122464 24 0.27132 24H22.7297C22.8796 24 23 23.8801 23 23.7307L22.9989 8.90757C22.9989 8.82447 22.961 8.7456 22.8944 8.69511ZM14.1298 23.4614H8.87016V14.7488H14.1287L14.1298 23.4614ZM22.4582 23.4614H14.6703V14.4796C14.6703 14.3302 14.5499 14.2103 14.4 14.2103H8.59989C8.45104 14.2103 8.32963 14.3302 8.32963 14.4796V23.4614H0.541696V9.04006L11.5012 0.609117L22.4596 9.04006V23.4614H22.4582Z" fill="#131313"/>
</svg>
