<svg width="40" height="40" viewBox="0 0 40 40" fill="none" xmlns="http://www.w3.org/2000/svg">
<rect width="40" height="40" rx="20" fill="#131313" fill-opacity="0.4"/>
<path d="M24.6991 8.00068C24.6339 8.0034 24.5715 8.03129 24.5227 8.0796L12.1007 19.7598C12.0692 19.7894 12.0438 19.8264 12.0264 19.8682C12.009 19.9099 12 19.9554 12 20.0015C12 20.0475 12.009 20.093 12.0264 20.1348C12.0438 20.1765 12.0692 20.2135 12.1007 20.2432L24.5227 31.9233C24.551 31.9506 24.5839 31.9712 24.6195 31.9842C24.655 31.9972 24.6925 32.0023 24.7298 31.9991C24.767 31.9959 24.8034 31.9845 24.8367 31.9656C24.8701 31.9467 24.8998 31.9206 24.9241 31.8889C24.9484 31.8571 24.9669 31.8203 24.9785 31.7806C24.9902 31.7408 24.9947 31.6989 24.9918 31.6573C24.9889 31.6156 24.9787 31.5749 24.9618 31.5376C24.9449 31.5004 24.9216 31.4672 24.8932 31.44L12.7271 20.0064L24.8932 8.56299C24.9403 8.52115 24.9743 8.46357 24.9901 8.39864C25.0059 8.3337 25.0027 8.26481 24.9811 8.20203C24.9594 8.13925 24.9203 8.08586 24.8696 8.04964C24.8189 8.01342 24.7592 7.99626 24.6991 8.00068Z" fill="white"/>
</svg>
