<svg width="32" height="32" viewBox="0 0 32 32" fill="none" xmlns="http://www.w3.org/2000/svg">
<rect width="32" height="32" rx="16" fill="#FF4B4B"/>
<path d="M12.04 9C11.0062 9 9.971 9.43613 9.18235 10.3042C7.60504 12.0404 7.60673 14.8292 9.18235 16.5669L15.8633 23.9414C15.8803 23.9599 15.9006 23.9747 15.923 23.9847C15.9455 23.9948 15.9696 24 15.994 24C16.0184 24 16.0425 23.9948 16.065 23.9847C16.0874 23.9747 16.1077 23.9599 16.1247 23.9414C18.3544 21.4872 20.5873 19.0331 22.817 16.5789C24.3943 14.8427 24.3943 12.0464 22.817 10.3102C21.2397 8.57407 18.6791 8.57403 17.1018 10.3102L16.0054 11.5243L14.8976 10.3042C14.1089 9.43614 13.0737 9 12.04 9ZM12.04 9.37864C12.9765 9.37864 13.9151 9.77495 14.6362 10.5687L15.8747 11.933C15.8917 11.9515 15.912 11.9663 15.9344 11.9763C15.9569 11.9864 15.981 11.9916 16.0054 11.9916C16.0298 11.9916 16.0539 11.9864 16.0763 11.9763C16.0988 11.9663 16.1191 11.9515 16.136 11.933L17.3632 10.5807C18.8054 8.99321 21.1135 8.99325 22.5557 10.5807C23.9979 12.1681 23.9979 14.727 22.5557 16.3144C20.3696 18.7207 18.1801 21.1265 15.994 23.5327L9.44368 16.3024C8.00273 14.7133 8.0015 12.1561 9.44368 10.5687C10.1648 9.77495 11.1034 9.37864 12.04 9.37864Z" fill="white"/>
</svg>
