<svg width="40" height="40" viewBox="0 0 40 40" fill="none" xmlns="http://www.w3.org/2000/svg">
<rect width="40" height="40" rx="20" fill="#131313" fill-opacity="0.4"/>
<path d="M15.3009 31.9993C15.3661 31.9966 15.4285 31.9687 15.4773 31.9204L27.8993 20.2402C27.9309 20.2106 27.9562 20.1736 27.9736 20.1318C27.991 20.0901 28 20.0446 28 19.9985C28 19.9525 27.991 19.907 27.9736 19.8652C27.9562 19.8235 27.9309 19.7865 27.8993 19.7568L15.4773 8.07665C15.449 8.04944 15.4161 8.02876 15.3805 8.01577C15.345 8.00278 15.3075 7.99773 15.2702 8.00093C15.233 8.00414 15.1966 8.01551 15.1633 8.03442C15.1299 8.05333 15.1002 8.0794 15.0759 8.11114C15.0516 8.14288 15.0331 8.17969 15.0215 8.21943C15.0098 8.25916 15.0053 8.30106 15.0082 8.34274C15.0111 8.38442 15.0213 8.42507 15.0382 8.46235C15.0551 8.49963 15.0784 8.53284 15.1068 8.56004L27.2729 19.9936L15.1068 31.437C15.0597 31.4789 15.0257 31.5364 15.0099 31.6014C14.9941 31.6663 14.9973 31.7352 15.0189 31.798C15.0406 31.8608 15.0797 31.9141 15.1304 31.9504C15.1811 31.9866 15.2408 32.0037 15.3009 31.9993Z" fill="white"/>
</svg>
