<svg width="40" height="40" viewBox="0 0 40 40" fill="none" xmlns="http://www.w3.org/2000/svg">
<rect width="40" height="40" rx="20" fill="#131313" fill-opacity="0.5"/>
<path d="M10.4 18C9.07455 18 8 19.1193 8 20.5C8 21.8807 9.07455 23 10.4 23C11.7255 23 12.8 21.8807 12.8 20.5C12.8 19.1193 11.7255 18 10.4 18ZM20 18C18.6745 18 17.6 19.1193 17.6 20.5C17.6 21.8807 18.6745 23 20 23C21.3255 23 22.4 21.8807 22.4 20.5C22.4 19.1193 21.3255 18 20 18ZM29.6 18C28.2745 18 27.2 19.1193 27.2 20.5C27.2 21.8807 28.2745 23 29.6 23C30.9255 23 32 21.8807 32 20.5C32 19.1193 30.9255 18 29.6 18Z" fill="white"/>
</svg>
