<svg width="15" height="25" viewBox="0 0 15 25" fill="none" xmlns="http://www.w3.org/2000/svg">
<path d="M14.6528 0.000710564C14.5776 0.00354225 14.5056 0.0325915 14.4492 0.082919L0.116172 12.2498C0.0797886 12.2807 0.0505363 12.3192 0.0304677 12.3627C0.0103991 12.4062 0 12.4536 0 12.5015C0 12.5495 0.0103991 12.5969 0.0304677 12.6404C0.0505363 12.6839 0.0797886 12.7224 0.116172 12.7533L14.4492 24.9202C14.482 24.9485 14.5199 24.97 14.5609 24.9836C14.6019 24.9971 14.6452 25.0024 14.6882 24.999C14.7312 24.9957 14.7731 24.9838 14.8116 24.9641C14.8501 24.9444 14.8843 24.9173 14.9124 24.8842C14.9405 24.8512 14.9618 24.8128 14.9752 24.7714C14.9886 24.73 14.9938 24.6864 14.9905 24.643C14.9872 24.5996 14.9755 24.5572 14.9559 24.5184C14.9364 24.4795 14.9095 24.445 14.8768 24.4166L0.838932 12.5067L14.8768 0.586446C14.9312 0.542863 14.9703 0.482884 14.9886 0.415245C15.0068 0.347606 15.0032 0.275844 14.9781 0.210447C14.9531 0.145049 14.9081 0.08944 14.8496 0.0517095C14.791 0.0139791 14.7221 -0.00389515 14.6528 0.000710564Z" fill="#B3B3B3"/>
</svg>
