<svg width="23" height="23" viewBox="0 0 23 23" fill="none" xmlns="http://www.w3.org/2000/svg">
<path d="M8.87069 0C3.97543 0 0 3.98484 0 8.87904C0 13.7732 3.97543 17.7478 8.87069 17.7478C11.1997 17.7478 13.3235 16.8476 14.9077 15.3766L22.4334 22.9008C22.4947 22.9633 22.5783 22.999 22.6659 23C22.7535 23.0009 22.8379 22.9671 22.9005 22.9058C22.9631 22.8446 22.9988 22.761 22.9998 22.6734C23.0008 22.5858 22.9669 22.5014 22.9057 22.4388L15.3697 14.9147C16.8431 13.3305 17.7414 11.2095 17.7414 8.87904C17.7414 3.98484 13.7659 0 8.87069 0ZM8.87069 0.667207C13.4108 0.667207 17.0843 4.33989 17.0843 8.87904C17.0843 13.4182 13.4108 17.0909 8.87069 17.0909C4.33055 17.0909 0.657087 13.4182 0.657087 8.87904C0.657087 4.33989 4.33055 0.667207 8.87069 0.667207Z" fill="#131313"/>
</svg>
