<svg width="56" height="56" viewBox="0 0 56 56" fill="none" xmlns="http://www.w3.org/2000/svg">
<rect width="56" height="56" rx="28" fill="url(#paint0_linear_238_4773)"/>
<g clip-path="url(#clip0_238_4773)">
<path d="M21.9693 13.5418C20.4201 13.6149 19.3622 13.8621 18.4373 14.2255C17.4802 14.5985 16.6689 15.0991 15.8617 15.9092C15.0545 16.7193 14.5574 17.5312 14.187 18.4898C13.8285 19.4167 13.5857 20.4755 13.5172 22.0256C13.4488 23.5756 13.4337 24.0739 13.4412 28.0278C13.4488 31.9817 13.4663 32.4773 13.5414 34.0306C13.6154 35.5795 13.8617 36.6371 14.2251 37.5623C14.5987 38.5194 15.0987 39.3304 15.9091 40.1379C16.7196 40.9454 17.5308 41.4414 18.4918 41.8123C19.4178 42.1702 20.4769 42.4142 22.0267 42.4821C23.5764 42.5499 24.0753 42.5657 28.028 42.5581C31.9808 42.5505 32.4784 42.5331 34.0314 42.4594C35.5844 42.3857 36.6365 42.1376 37.5619 41.7759C38.5191 41.4015 39.3307 40.9023 40.1376 40.0916C40.9445 39.2809 41.4413 38.4685 41.8114 37.5093C42.1701 36.5833 42.4139 35.5242 42.4811 33.9756C42.549 32.4214 42.565 31.9252 42.5574 27.9719C42.5499 24.0186 42.5321 23.5229 42.4584 21.9703C42.3848 20.4176 42.1381 19.3631 41.775 18.4374C41.4008 17.4803 40.9014 16.6698 40.0913 15.8618C39.2811 15.0537 38.4681 14.5572 37.5092 14.1879C36.5826 13.8295 35.5241 13.5852 33.9743 13.5182C32.4246 13.4512 31.9257 13.434 27.9715 13.4416C24.0173 13.4492 23.5223 13.4661 21.9693 13.5418ZM22.1394 39.8628C20.7198 39.801 19.949 39.5651 19.4353 39.3677C18.755 39.1056 18.2705 38.7888 17.7586 38.2818C17.2466 37.7749 16.9321 37.2885 16.6666 36.6098C16.4671 36.0961 16.2268 35.3262 16.1604 33.9065C16.0882 32.3722 16.0731 31.9115 16.0646 28.0243C16.0562 24.1371 16.0711 23.677 16.1383 22.1421C16.1989 20.7236 16.4362 19.952 16.6334 19.4386C16.8954 18.7575 17.2111 18.2738 17.7192 17.7621C18.2274 17.2505 18.7122 16.9354 19.3916 16.6698C19.9047 16.4695 20.6746 16.2313 22.0936 16.1637C23.6291 16.0909 24.0892 16.0764 27.9759 16.0679C31.8625 16.0595 32.3238 16.074 33.8599 16.1416C35.2783 16.2033 36.0503 16.4383 36.5631 16.6366C37.2436 16.8987 37.7279 17.2135 38.2395 17.7225C38.7512 18.2315 39.0665 18.7146 39.3321 19.3955C39.5327 19.9071 39.7709 20.6768 39.8379 22.0966C39.911 23.6321 39.9276 24.0925 39.9346 27.9789C39.9416 31.8652 39.9279 32.3268 39.8606 33.8611C39.7986 35.2807 39.5633 36.0518 39.3656 36.5661C39.1035 37.246 38.7876 37.7309 38.2791 38.2422C37.7707 38.7536 37.2864 39.0687 36.6068 39.3342C36.0943 39.5343 35.3235 39.7731 33.9056 39.8406C32.3701 39.9128 31.91 39.928 28.0219 39.9364C24.1338 39.9449 23.6749 39.9291 22.1394 39.8628ZM34.009 20.2181C34.0095 20.5637 34.1126 20.9014 34.3051 21.1884C34.4976 21.4754 34.7709 21.6989 35.0904 21.8306C35.4099 21.9623 35.7613 21.9962 36.1001 21.9282C36.4389 21.8602 36.75 21.6932 36.9939 21.4484C37.2378 21.2036 37.4036 20.8919 37.4704 20.5528C37.5372 20.2138 37.502 19.8625 37.3691 19.5435C37.2362 19.2245 37.0117 18.952 36.724 18.7606C36.4363 18.5691 36.0983 18.4673 35.7527 18.468C35.2894 18.4689 34.8454 18.6538 34.5184 18.982C34.1915 19.3102 34.0082 19.7548 34.009 20.2181ZM20.5235 28.0144C20.5317 32.1436 23.8851 35.4834 28.0135 35.4755C32.1418 35.4677 35.4839 32.1145 35.476 27.9853C35.4682 23.8561 32.1138 20.5154 27.9849 20.5236C23.856 20.5317 20.5156 23.8858 20.5235 28.0144ZM23.146 28.0092C23.1441 27.0493 23.4269 26.1103 23.9587 25.3111C24.4904 24.5119 25.2472 23.8884 26.1333 23.5193C27.0194 23.1502 27.9951 23.0521 28.9369 23.2375C29.8787 23.4229 30.7445 23.8835 31.4246 24.5609C32.1047 25.2383 32.5686 26.1022 32.7578 27.0433C32.9469 27.9844 32.8527 28.9604 32.4871 29.848C32.1215 30.7356 31.501 31.4948 30.7039 32.0297C29.9068 32.5646 28.969 32.8511 28.0091 32.853C27.3717 32.8543 26.7403 32.7301 26.1509 32.4874C25.5616 32.2447 25.0258 31.8882 24.5742 31.4384C24.1226 30.9886 23.7641 30.4543 23.519 29.8659C23.274 29.2775 23.1472 28.6466 23.146 28.0092Z" fill="white"/>
</g>
<defs>
<linearGradient id="paint0_linear_238_4773" x1="12.6" y1="4.76" x2="17.64" y2="54.04" gradientUnits="userSpaceOnUse">
<stop stop-color="#4F5BD5"/>
<stop offset="0.205" stop-color="#962FBF"/>
<stop offset="0.59" stop-color="#D62976"/>
<stop offset="0.805" stop-color="#FA7E1E"/>
<stop offset="0.99" stop-color="#FEDA75"/>
</linearGradient>
<clipPath id="clip0_238_4773">
<rect width="29.12" height="29.12" fill="white" transform="translate(13.4395 13.4399)"/>
</clipPath>
</defs>
</svg>
